solid Tapa_pilas_8_4
facet normal 4.806761049797704e-16 -3.1724622928664707e-15 -1.0
  outer loop
    vertex 106.59347412688034 -33.36258131436282 11.000000000000034
    vertex 84.5934741268803 -35.3625813143629 11.000000000000028
    vertex 84.5934741268803 -33.36258131436291 11.000000000000016
  endloop
endfacet
facet normal 4.806761049797704e-16 -3.1724622928664707e-15 -1.0
  outer loop
    vertex 84.5934741268803 -35.3625813143629 11.000000000000028
    vertex 106.59347412688034 -33.36258131436282 11.000000000000034
    vertex 106.59347412688034 -35.362581314362764 11.000000000000034
  endloop
endfacet
facet normal -0.0 -0.0 -1.0
  outer loop
    vertex 106.59347412688028 -116.16258131436285 15.000000000000034
    vertex 84.59347412688027 -118.16258131436284 15.000000000000034
    vertex 84.59347412688027 -116.16258131436285 15.000000000000034
  endloop
endfacet
facet normal -0.0 -0.0 -1.0
  outer loop
    vertex 84.59347412688027 -118.16258131436284 15.000000000000034
    vertex 106.59347412688028 -116.16258131436285 15.000000000000034
    vertex 106.59347412688028 -118.16258131436284 15.000000000000034
  endloop
endfacet
facet normal 0.9656841151817499 0.25971944418091053 -1.0829910389214081e-15
  outer loop
    vertex 98.70008005819496 -76.76258131436285 23.500000000000064
    vertex 101.80668598950963 -88.31350700443289 25.500000000000068
    vertex 101.80668598950963 -88.31350700443289 23.50000000000007
  endloop
endfacet
facet normal 0.9656841151817499 0.25971944418091053 -1.0829910389214081e-15
  outer loop
    vertex 101.80668598950963 -88.31350700443289 25.500000000000068
    vertex 98.70008005819496 -76.76258131436285 23.500000000000064
    vertex 98.70008005819496 -76.76258131436285 25.500000000000068
  endloop
endfacet
facet normal -0.9656841151817498 0.2597194441809109 6.49952403150427e-16
  outer loop
    vertex 92.48686819556558 -76.7625813143628 25.500000000000078
    vertex 89.38026226425089 -88.31350700443288 23.500000000000085
    vertex 89.38026226425089 -88.31350700443288 25.50000000000009
  endloop
endfacet
facet normal -0.9656841151817498 0.2597194441809109 6.49952403150427e-16
  outer loop
    vertex 89.38026226425089 -88.31350700443288 23.500000000000085
    vertex 92.48686819556558 -76.7625813143628 25.500000000000078
    vertex 92.48686819556558 -76.7625813143628 23.50000000000008
  endloop
endfacet
facet normal -0.9656841151817439 0.25971944418093235 6.499524031504038e-16
  outer loop
    vertex 98.70008005819496 -53.66072993422268 25.500000000000078
    vertex 95.59347412688012 -65.21165562429222 23.500000000000057
    vertex 95.59347412688012 -65.21165562429222 25.500000000000053
  endloop
endfacet
facet normal -0.9656841151817439 0.25971944418093235 6.499524031504038e-16
  outer loop
    vertex 95.59347412688012 -65.21165562429222 23.500000000000057
    vertex 98.70008005819496 -53.66072993422268 25.500000000000078
    vertex 98.70008005819496 -53.66072993422268 23.50000000000008
  endloop
endfacet
facet normal -1.0 1.924776435349974e-16 -1.9329347720750812e-15
  outer loop
    vertex 84.59347412688027 -120.16258131436287 25.50000000000009
    vertex 84.59347412688025 -118.1625813143628 21.50000000000008
    vertex 84.59347412688027 -120.16258131436284 11.000000000000034
  endloop
endfacet
facet normal -1.0 1.924776435349974e-16 -1.9329347720750812e-15
  outer loop
    vertex 84.59347412688025 -118.1625813143628 21.50000000000008
    vertex 84.59347412688027 -120.16258131436287 25.50000000000009
    vertex 84.59347412688022 -116.16258131436275 23.50000000000008
  endloop
endfacet
facet normal -1.0 1.924776435349974e-16 -1.9329347720750812e-15
  outer loop
    vertex 84.59347412688022 -116.16258131436275 23.50000000000008
    vertex 84.59347412688027 -120.16258131436287 25.50000000000009
    vertex 84.59347412688027 -33.36258131436286 25.50000000000002
  endloop
endfacet
facet normal -1.0 1.924776435349974e-16 -1.9329347720750812e-15
  outer loop
    vertex 84.59347412688027 -120.16258131436284 11.000000000000034
    vertex 84.59347412688025 -118.1625813143628 21.50000000000008
    vertex 84.59347412688027 -118.16258131436284 15.000000000000034
  endloop
endfacet
facet normal -1.0 1.924776435349974e-16 -1.9329347720750812e-15
  outer loop
    vertex 84.59347412688027 -120.16258131436284 11.000000000000034
    vertex 84.59347412688027 -118.16258131436284 15.000000000000034
    vertex 84.59347412688027 -118.16258131436287 11.000000000000034
  endloop
endfacet
facet normal -1.0 1.924776435349974e-16 -1.9329347720750812e-15
  outer loop
    vertex 84.59347412688022 -116.16258131436275 23.50000000000008
    vertex 84.59347412688027 -33.36258131436286 25.50000000000002
    vertex 84.59347412688025 -37.36258131436281 23.50000000000007
  endloop
endfacet
facet normal -1.0 1.924776435349974e-16 -1.9329347720750812e-15
  outer loop
    vertex 84.59347412688025 -37.36258131436281 23.50000000000007
    vertex 84.59347412688027 -33.36258131436286 25.50000000000002
    vertex 84.59347412688025 -35.36258131436279 21.50000000000007
  endloop
endfacet
facet normal -1.0 1.924776435349974e-16 -1.9329347720750812e-15
  outer loop
    vertex 84.59347412688025 -35.36258131436279 21.50000000000007
    vertex 84.59347412688027 -33.36258131436286 25.50000000000002
    vertex 84.5934741268803 -33.36258131436291 11.000000000000016
  endloop
endfacet
facet normal -1.0 1.924776435349974e-16 -1.9329347720750812e-15
  outer loop
    vertex 84.59347412688028 -35.36258131436285 15.000000000000028
    vertex 84.5934741268803 -35.3625813143629 11.000000000000028
    vertex 84.59347412688028 -37.36258131436278 15.000000000000028
  endloop
endfacet
facet normal -1.0 1.924776435349974e-16 -1.9329347720750812e-15
  outer loop
    vertex 84.5934741268803 -35.3625813143629 11.000000000000028
    vertex 84.59347412688028 -35.36258131436285 15.000000000000028
    vertex 84.5934741268803 -33.36258131436291 11.000000000000016
  endloop
endfacet
facet normal -1.0 1.924776435349974e-16 -1.9329347720750812e-15
  outer loop
    vertex 84.5934741268803 -33.36258131436291 11.000000000000016
    vertex 84.59347412688028 -35.36258131436285 15.000000000000028
    vertex 84.59347412688025 -35.36258131436279 21.50000000000007
  endloop
endfacet
facet normal -1.0 1.924776435349974e-16 -1.9329347720750812e-15
  outer loop
    vertex 84.59347412688027 -116.16258131436285 15.000000000000034
    vertex 84.59347412688027 -118.16258131436287 11.000000000000034
    vertex 84.59347412688027 -118.16258131436284 15.000000000000034
  endloop
endfacet
facet normal 1.0 -6.200596867829883e-16 2.2241989158124206e-15
  outer loop
    vertex 106.59347412688028 -116.16258131436285 15.000000000000034
    vertex 106.59347412688028 -118.16258131436284 15.000000000000034
    vertex 106.59347412688028 -118.16258131436284 11.00000000000005
  endloop
endfacet
facet normal 1.0 -6.200596867829883e-16 2.2241989158124206e-15
  outer loop
    vertex 106.59347412688034 -35.362581314362764 11.000000000000034
    vertex 106.59347412688034 -35.362581314362764 15.000000000000034
    vertex 106.59347412688034 -37.36258131436278 15.000000000000034
  endloop
endfacet
facet normal 1.0 -6.200596867829883e-16 2.2241989158124206e-15
  outer loop
    vertex 106.59347412688034 -35.362581314362764 15.000000000000034
    vertex 106.59347412688034 -35.362581314362764 11.000000000000034
    vertex 106.59347412688034 -33.36258131436282 11.000000000000034
  endloop
endfacet
facet normal 1.0 -6.200596867829883e-16 2.2241989158124206e-15
  outer loop
    vertex 106.59347412688028 -120.16258131436287 25.500000000000068
    vertex 106.59347412688025 -116.16258131436278 23.50000000000008
    vertex 106.5934741268803 -33.36258131436282 25.50000000000009
  endloop
endfacet
facet normal 1.0 -6.200596867829883e-16 2.2241989158124206e-15
  outer loop
    vertex 106.59347412688025 -116.16258131436278 23.50000000000008
    vertex 106.59347412688028 -120.16258131436287 25.500000000000068
    vertex 106.59347412688028 -118.16258131436282 21.50000000000008
  endloop
endfacet
facet normal 1.0 -6.200596867829883e-16 2.2241989158124206e-15
  outer loop
    vertex 106.59347412688028 -118.16258131436282 21.50000000000008
    vertex 106.59347412688028 -120.16258131436287 25.500000000000068
    vertex 106.59347412688028 -120.16258131436284 11.00000000000005
  endloop
endfacet
facet normal 1.0 -6.200596867829883e-16 2.2241989158124206e-15
  outer loop
    vertex 106.59347412688028 -118.16258131436282 21.50000000000008
    vertex 106.59347412688028 -120.16258131436284 11.00000000000005
    vertex 106.59347412688028 -118.16258131436284 15.000000000000034
  endloop
endfacet
facet normal 1.0 -6.200596867829883e-16 2.2241989158124206e-15
  outer loop
    vertex 106.59347412688028 -118.16258131436284 15.000000000000034
    vertex 106.59347412688028 -120.16258131436284 11.00000000000005
    vertex 106.59347412688028 -118.16258131436284 11.00000000000005
  endloop
endfacet
facet normal 1.0 -6.200596867829883e-16 2.2241989158124206e-15
  outer loop
    vertex 106.5934741268803 -33.36258131436282 25.50000000000009
    vertex 106.59347412688025 -116.16258131436278 23.50000000000008
    vertex 106.5934741268803 -37.36258131436281 23.50000000000007
  endloop
endfacet
facet normal 1.0 -6.200596867829883e-16 2.2241989158124206e-15
  outer loop
    vertex 106.5934741268803 -33.36258131436282 25.50000000000009
    vertex 106.5934741268803 -37.36258131436281 23.50000000000007
    vertex 106.5934741268803 -35.36258131436279 21.50000000000007
  endloop
endfacet
facet normal 1.0 -6.200596867829883e-16 2.2241989158124206e-15
  outer loop
    vertex 106.5934741268803 -33.36258131436282 25.50000000000009
    vertex 106.5934741268803 -35.36258131436279 21.50000000000007
    vertex 106.59347412688034 -35.362581314362764 15.000000000000034
  endloop
endfacet
facet normal 1.0 -6.200596867829883e-16 2.2241989158124206e-15
  outer loop
    vertex 106.5934741268803 -33.36258131436282 25.50000000000009
    vertex 106.59347412688034 -35.362581314362764 15.000000000000034
    vertex 106.59347412688034 -33.36258131436282 11.000000000000034
  endloop
endfacet
facet normal 7.049916206369743e-16 -5.280765092412746e-32 -1.0
  outer loop
    vertex 106.59347412688028 -118.16258131436284 11.00000000000005
    vertex 84.59347412688027 -120.16258131436284 11.000000000000034
    vertex 84.59347412688027 -118.16258131436287 11.000000000000034
  endloop
endfacet
facet normal 7.049916206369743e-16 -5.280765092412746e-32 -1.0
  outer loop
    vertex 84.59347412688027 -120.16258131436284 11.000000000000034
    vertex 106.59347412688028 -118.16258131436284 11.00000000000005
    vertex 106.59347412688028 -120.16258131436284 11.00000000000005
  endloop
endfacet
facet normal -0.9656841151817496 -0.25971944418091136 1.0829910389214085e-15
  outer loop
    vertex 89.38026226425089 -65.21165562429272 25.500000000000068
    vertex 92.48686819556558 -76.7625813143628 23.50000000000008
    vertex 92.48686819556558 -76.7625813143628 25.500000000000078
  endloop
endfacet
facet normal -0.9656841151817496 -0.25971944418091136 1.0829910389214085e-15
  outer loop
    vertex 92.48686819556558 -76.7625813143628 23.50000000000008
    vertex 89.38026226425089 -65.21165562429272 25.500000000000068
    vertex 89.38026226425089 -65.21165562429272 23.50000000000007
  endloop
endfacet
facet normal 2.821055895657914e-15 -0.8944271909999203 -0.4472135954999491
  outer loop
    vertex 106.59347412688034 -35.362581314362764 11.000000000000034
    vertex 84.59347412688028 -37.36258131436278 15.000000000000028
    vertex 84.5934741268803 -35.3625813143629 11.000000000000028
  endloop
endfacet
facet normal 2.821055895657914e-15 -0.8944271909999203 -0.4472135954999491
  outer loop
    vertex 84.59347412688028 -37.36258131436278 15.000000000000028
    vertex 106.59347412688034 -35.362581314362764 11.000000000000034
    vertex 106.59347412688034 -37.36258131436278 15.000000000000034
  endloop
endfacet
facet normal -1.281802946612681e-15 2.658866749539258e-16 1.0
  outer loop
    vertex 84.59347412688027 -120.16258131436287 25.50000000000009
    vertex 86.2736563329362 -76.7625813143628 25.500000000000068
    vertex 84.59347412688027 -33.36258131436286 25.50000000000002
  endloop
endfacet
facet normal -1.281802946612681e-15 2.658866749539258e-16 1.0
  outer loop
    vertex 86.2736563329362 -76.7625813143628 25.500000000000068
    vertex 84.59347412688027 -120.16258131436287 25.50000000000009
    vertex 95.5934741268799 -111.41535838457162 25.500000000000078
  endloop
endfacet
facet normal -1.281802946612681e-15 2.658866749539258e-16 1.0
  outer loop
    vertex 95.5934741268799 -111.41535838457162 25.500000000000078
    vertex 84.59347412688027 -120.16258131436287 25.50000000000009
    vertex 106.59347412688028 -120.16258131436287 25.500000000000068
  endloop
endfacet
facet normal -1.281802946612681e-15 2.658866749539258e-16 1.0
  outer loop
    vertex 86.2736563329362 -76.7625813143628 25.500000000000068
    vertex 95.5934741268799 -111.41535838457162 25.500000000000078
    vertex 89.38026226425089 -88.31350700443288 25.50000000000009
  endloop
endfacet
facet normal -1.281802946612681e-15 2.658866749539258e-16 1.0
  outer loop
    vertex 89.38026226425089 -88.31350700443288 25.50000000000009
    vertex 95.5934741268799 -111.41535838457162 25.500000000000078
    vertex 92.48686819556559 -99.86443269450294 25.500000000000068
  endloop
endfacet
facet normal -1.281802946612681e-15 2.658866749539258e-16 1.0
  outer loop
    vertex 89.38026226425089 -88.31350700443288 25.50000000000009
    vertex 92.48686819556559 -99.86443269450294 25.500000000000068
    vertex 92.48686819556558 -76.7625813143628 25.500000000000078
  endloop
endfacet
facet normal -1.281802946612681e-15 2.658866749539258e-16 1.0
  outer loop
    vertex 95.5934741268799 -111.41535838457162 25.500000000000078
    vertex 106.59347412688028 -120.16258131436287 25.500000000000068
    vertex 98.70008005819496 -99.86443269450294 25.50000000000009
  endloop
endfacet
facet normal -1.281802946612681e-15 2.658866749539258e-16 1.0
  outer loop
    vertex 98.70008005819496 -99.86443269450294 25.50000000000009
    vertex 106.59347412688028 -120.16258131436287 25.500000000000068
    vertex 98.70008005819496 -76.76258131436285 25.500000000000068
  endloop
endfacet
facet normal -1.281802946612681e-15 2.658866749539258e-16 1.0
  outer loop
    vertex 98.70008005819496 -99.86443269450294 25.50000000000009
    vertex 98.70008005819496 -76.76258131436285 25.500000000000068
    vertex 98.70008005819496 -53.66072993422268 25.500000000000078
  endloop
endfacet
facet normal -1.281802946612681e-15 2.658866749539258e-16 1.0
  outer loop
    vertex 98.70008005819496 -76.76258131436285 25.500000000000068
    vertex 106.59347412688028 -120.16258131436287 25.500000000000068
    vertex 101.80668598950963 -88.31350700443289 25.500000000000068
  endloop
endfacet
facet normal -1.281802946612681e-15 2.658866749539258e-16 1.0
  outer loop
    vertex 101.80668598950963 -88.31350700443289 25.500000000000068
    vertex 106.59347412688028 -120.16258131436287 25.500000000000068
    vertex 104.9132919208243 -76.7625813143628 25.500000000000068
  endloop
endfacet
facet normal -1.281802946612681e-15 2.658866749539258e-16 1.0
  outer loop
    vertex 84.59347412688027 -33.36258131436286 25.50000000000002
    vertex 95.59347412688022 -42.10980424415251 25.500000000000053
    vertex 106.5934741268803 -33.36258131436282 25.50000000000009
  endloop
endfacet
facet normal -1.281802946612681e-15 2.658866749539258e-16 1.0
  outer loop
    vertex 95.59347412688022 -42.10980424415251 25.500000000000053
    vertex 84.59347412688027 -33.36258131436286 25.50000000000002
    vertex 86.2736563329362 -76.7625813143628 25.500000000000068
  endloop
endfacet
facet normal -1.281802946612681e-15 2.658866749539258e-16 1.0
  outer loop
    vertex 95.59347412688022 -42.10980424415251 25.500000000000053
    vertex 86.2736563329362 -76.7625813143628 25.500000000000068
    vertex 89.38026226425089 -65.21165562429272 25.500000000000068
  endloop
endfacet
facet normal -1.281802946612681e-15 2.658866749539258e-16 1.0
  outer loop
    vertex 95.59347412688022 -42.10980424415251 25.500000000000053
    vertex 89.38026226425089 -65.21165562429272 25.500000000000068
    vertex 92.48686819556558 -53.66072993422268 25.500000000000068
  endloop
endfacet
facet normal -1.281802946612681e-15 2.658866749539258e-16 1.0
  outer loop
    vertex 106.5934741268803 -33.36258131436282 25.50000000000009
    vertex 95.59347412688022 -42.10980424415251 25.500000000000053
    vertex 98.70008005819496 -53.66072993422268 25.500000000000078
  endloop
endfacet
facet normal -1.281802946612681e-15 2.658866749539258e-16 1.0
  outer loop
    vertex 106.5934741268803 -33.36258131436282 25.50000000000009
    vertex 98.70008005819496 -53.66072993422268 25.500000000000078
    vertex 98.70008005819496 -76.76258131436285 25.500000000000068
  endloop
endfacet
facet normal -1.281802946612681e-15 2.658866749539258e-16 1.0
  outer loop
    vertex 106.5934741268803 -33.36258131436282 25.50000000000009
    vertex 98.70008005819496 -76.76258131436285 25.500000000000068
    vertex 101.80668598950967 -65.21165562429272 25.500000000000043
  endloop
endfacet
facet normal -1.281802946612681e-15 2.658866749539258e-16 1.0
  outer loop
    vertex 106.5934741268803 -33.36258131436282 25.50000000000009
    vertex 101.80668598950967 -65.21165562429272 25.500000000000043
    vertex 104.9132919208243 -76.7625813143628 25.500000000000068
  endloop
endfacet
facet normal -1.281802946612681e-15 2.658866749539258e-16 1.0
  outer loop
    vertex 106.5934741268803 -33.36258131436282 25.50000000000009
    vertex 104.9132919208243 -76.7625813143628 25.500000000000068
    vertex 106.59347412688028 -120.16258131436287 25.500000000000068
  endloop
endfacet
facet normal -1.281802946612681e-15 2.658866749539258e-16 1.0
  outer loop
    vertex 92.48686819556558 -76.7625813143628 25.500000000000078
    vertex 92.48686819556558 -53.66072993422268 25.500000000000068
    vertex 89.38026226425089 -65.21165562429272 25.500000000000068
  endloop
endfacet
facet normal -1.281802946612681e-15 2.658866749539258e-16 1.0
  outer loop
    vertex 92.48686819556558 -53.66072993422268 25.500000000000068
    vertex 92.48686819556558 -76.7625813143628 25.500000000000078
    vertex 95.59347412688012 -65.21165562429222 25.500000000000053
  endloop
endfacet
facet normal -1.281802946612681e-15 2.658866749539258e-16 1.0
  outer loop
    vertex 95.59347412688012 -65.21165562429222 25.500000000000053
    vertex 92.48686819556558 -76.7625813143628 25.500000000000078
    vertex 92.48686819556559 -99.86443269450294 25.500000000000068
  endloop
endfacet
facet normal -1.281802946612681e-15 2.658866749539258e-16 1.0
  outer loop
    vertex 95.59347412688012 -65.21165562429222 25.500000000000053
    vertex 92.48686819556559 -99.86443269450294 25.500000000000068
    vertex 95.59347412688004 -88.3135070044338 25.500000000000043
  endloop
endfacet
facet normal -1.281802946612681e-15 2.658866749539258e-16 1.0
  outer loop
    vertex 95.59347412688012 -65.21165562429222 25.500000000000053
    vertex 95.59347412688004 -88.3135070044338 25.500000000000043
    vertex 98.70008005819496 -99.86443269450294 25.50000000000009
  endloop
endfacet
facet normal -1.281802946612681e-15 2.658866749539258e-16 1.0
  outer loop
    vertex 95.59347412688012 -65.21165562429222 25.500000000000053
    vertex 98.70008005819496 -99.86443269450294 25.50000000000009
    vertex 98.70008005819496 -53.66072993422268 25.500000000000078
  endloop
endfacet
facet normal 5.127211786450713e-16 -2.512326049584038e-16 -1.0
  outer loop
    vertex 84.59347412688025 -37.36258131436281 23.50000000000007
    vertex 95.59347412688022 -42.10980424415251 23.500000000000053
    vertex 86.2736563329362 -76.7625813143628 23.50000000000007
  endloop
endfacet
facet normal 5.127211786450713e-16 -2.512326049584038e-16 -1.0
  outer loop
    vertex 95.59347412688022 -42.10980424415251 23.500000000000053
    vertex 84.59347412688025 -37.36258131436281 23.50000000000007
    vertex 106.5934741268803 -37.36258131436281 23.50000000000007
  endloop
endfacet
facet normal 5.127211786450713e-16 -2.512326049584038e-16 -1.0
  outer loop
    vertex 86.2736563329362 -76.7625813143628 23.50000000000007
    vertex 95.59347412688022 -42.10980424415251 23.500000000000053
    vertex 89.38026226425089 -65.21165562429272 23.50000000000007
  endloop
endfacet
facet normal 5.127211786450713e-16 -2.512326049584038e-16 -1.0
  outer loop
    vertex 89.38026226425089 -65.21165562429272 23.50000000000007
    vertex 95.59347412688022 -42.10980424415251 23.500000000000053
    vertex 92.48686819556558 -53.66072993422268 23.50000000000007
  endloop
endfacet
facet normal 5.127211786450713e-16 -2.512326049584038e-16 -1.0
  outer loop
    vertex 95.59347412688022 -42.10980424415251 23.500000000000053
    vertex 106.5934741268803 -37.36258131436281 23.50000000000007
    vertex 98.70008005819496 -53.66072993422268 23.50000000000008
  endloop
endfacet
facet normal 5.127211786450713e-16 -2.512326049584038e-16 -1.0
  outer loop
    vertex 98.70008005819496 -53.66072993422268 23.50000000000008
    vertex 106.5934741268803 -37.36258131436281 23.50000000000007
    vertex 98.70008005819496 -76.76258131436285 23.500000000000064
  endloop
endfacet
facet normal 5.127211786450713e-16 -2.512326049584038e-16 -1.0
  outer loop
    vertex 98.70008005819496 -53.66072993422268 23.50000000000008
    vertex 98.70008005819496 -76.76258131436285 23.500000000000064
    vertex 98.70008005819496 -99.86443269450294 23.500000000000085
  endloop
endfacet
facet normal 5.127211786450713e-16 -2.512326049584038e-16 -1.0
  outer loop
    vertex 98.70008005819496 -76.76258131436285 23.500000000000064
    vertex 106.5934741268803 -37.36258131436281 23.50000000000007
    vertex 101.80668598950967 -65.21165562429272 23.500000000000046
  endloop
endfacet
facet normal 5.127211786450713e-16 -2.512326049584038e-16 -1.0
  outer loop
    vertex 101.80668598950967 -65.21165562429272 23.500000000000046
    vertex 106.5934741268803 -37.36258131436281 23.50000000000007
    vertex 104.9132919208243 -76.7625813143628 23.50000000000007
  endloop
endfacet
facet normal 5.127211786450713e-16 -2.512326049584038e-16 -1.0
  outer loop
    vertex 104.9132919208243 -76.7625813143628 23.50000000000007
    vertex 106.5934741268803 -37.36258131436281 23.50000000000007
    vertex 106.59347412688025 -116.16258131436278 23.50000000000008
  endloop
endfacet
facet normal 5.127211786450713e-16 -2.512326049584038e-16 -1.0
  outer loop
    vertex 84.59347412688022 -116.16258131436275 23.50000000000008
    vertex 95.5934741268799 -111.41535838457162 23.500000000000075
    vertex 106.59347412688025 -116.16258131436278 23.50000000000008
  endloop
endfacet
facet normal 5.127211786450713e-16 -2.512326049584038e-16 -1.0
  outer loop
    vertex 95.5934741268799 -111.41535838457162 23.500000000000075
    vertex 84.59347412688022 -116.16258131436275 23.50000000000008
    vertex 86.2736563329362 -76.7625813143628 23.50000000000007
  endloop
endfacet
facet normal 5.127211786450713e-16 -2.512326049584038e-16 -1.0
  outer loop
    vertex 86.2736563329362 -76.7625813143628 23.50000000000007
    vertex 84.59347412688022 -116.16258131436275 23.50000000000008
    vertex 84.59347412688025 -37.36258131436281 23.50000000000007
  endloop
endfacet
facet normal 5.127211786450713e-16 -2.512326049584038e-16 -1.0
  outer loop
    vertex 95.5934741268799 -111.41535838457162 23.500000000000075
    vertex 86.2736563329362 -76.7625813143628 23.50000000000007
    vertex 89.38026226425089 -88.31350700443288 23.500000000000085
  endloop
endfacet
facet normal 5.127211786450713e-16 -2.512326049584038e-16 -1.0
  outer loop
    vertex 95.5934741268799 -111.41535838457162 23.500000000000075
    vertex 89.38026226425089 -88.31350700443288 23.500000000000085
    vertex 92.48686819556559 -99.86443269450294 23.50000000000007
  endloop
endfacet
facet normal 5.127211786450713e-16 -2.512326049584038e-16 -1.0
  outer loop
    vertex 92.48686819556559 -99.86443269450294 23.50000000000007
    vertex 89.38026226425089 -88.31350700443288 23.500000000000085
    vertex 92.48686819556558 -76.7625813143628 23.50000000000008
  endloop
endfacet
facet normal 5.127211786450713e-16 -2.512326049584038e-16 -1.0
  outer loop
    vertex 106.59347412688025 -116.16258131436278 23.50000000000008
    vertex 95.5934741268799 -111.41535838457162 23.500000000000075
    vertex 98.70008005819496 -99.86443269450294 23.500000000000085
  endloop
endfacet
facet normal 5.127211786450713e-16 -2.512326049584038e-16 -1.0
  outer loop
    vertex 106.59347412688025 -116.16258131436278 23.50000000000008
    vertex 98.70008005819496 -99.86443269450294 23.500000000000085
    vertex 98.70008005819496 -76.76258131436285 23.500000000000064
  endloop
endfacet
facet normal 5.127211786450713e-16 -2.512326049584038e-16 -1.0
  outer loop
    vertex 106.59347412688025 -116.16258131436278 23.50000000000008
    vertex 98.70008005819496 -76.76258131436285 23.500000000000064
    vertex 101.80668598950963 -88.31350700443289 23.50000000000007
  endloop
endfacet
facet normal 5.127211786450713e-16 -2.512326049584038e-16 -1.0
  outer loop
    vertex 106.59347412688025 -116.16258131436278 23.50000000000008
    vertex 101.80668598950963 -88.31350700443289 23.50000000000007
    vertex 104.9132919208243 -76.7625813143628 23.50000000000007
  endloop
endfacet
facet normal 5.127211786450713e-16 -2.512326049584038e-16 -1.0
  outer loop
    vertex 92.48686819556558 -53.66072993422268 23.50000000000007
    vertex 92.48686819556558 -76.7625813143628 23.50000000000008
    vertex 89.38026226425089 -65.21165562429272 23.50000000000007
  endloop
endfacet
facet normal 5.127211786450713e-16 -2.512326049584038e-16 -1.0
  outer loop
    vertex 92.48686819556558 -76.7625813143628 23.50000000000008
    vertex 92.48686819556558 -53.66072993422268 23.50000000000007
    vertex 95.59347412688012 -65.21165562429222 23.500000000000057
  endloop
endfacet
facet normal 5.127211786450713e-16 -2.512326049584038e-16 -1.0
  outer loop
    vertex 92.48686819556558 -76.7625813143628 23.50000000000008
    vertex 95.59347412688012 -65.21165562429222 23.500000000000057
    vertex 92.48686819556559 -99.86443269450294 23.50000000000007
  endloop
endfacet
facet normal 5.127211786450713e-16 -2.512326049584038e-16 -1.0
  outer loop
    vertex 92.48686819556559 -99.86443269450294 23.50000000000007
    vertex 95.59347412688012 -65.21165562429222 23.500000000000057
    vertex 95.59347412688004 -88.3135070044338 23.500000000000053
  endloop
endfacet
facet normal 5.127211786450713e-16 -2.512326049584038e-16 -1.0
  outer loop
    vertex 95.59347412688004 -88.3135070044338 23.500000000000053
    vertex 95.59347412688012 -65.21165562429222 23.500000000000057
    vertex 98.70008005819496 -99.86443269450294 23.500000000000085
  endloop
endfacet
facet normal 5.127211786450713e-16 -2.512326049584038e-16 -1.0
  outer loop
    vertex 98.70008005819496 -99.86443269450294 23.500000000000085
    vertex 95.59347412688012 -65.21165562429222 23.500000000000057
    vertex 98.70008005819496 -53.66072993422268 23.50000000000008
  endloop
endfacet
facet normal -5.756231360855396e-32 -1.0 -1.5558435765781464e-15
  outer loop
    vertex 106.59347412688028 -120.16258131436284 11.00000000000005
    vertex 84.59347412688027 -120.16258131436287 25.50000000000009
    vertex 84.59347412688027 -120.16258131436284 11.000000000000034
  endloop
endfacet
facet normal -5.756231360855396e-32 -1.0 -1.5558435765781464e-15
  outer loop
    vertex 84.59347412688027 -120.16258131436287 25.50000000000009
    vertex 106.59347412688028 -120.16258131436284 11.00000000000005
    vertex 106.59347412688028 -120.16258131436287 25.500000000000068
  endloop
endfacet
facet normal -3.0763270718704253e-15 1.0 -1.5558435765781517e-15
  outer loop
    vertex 84.59347412688027 -33.36258131436286 25.50000000000002
    vertex 106.59347412688034 -33.36258131436282 11.000000000000034
    vertex 84.5934741268803 -33.36258131436291 11.000000000000016
  endloop
endfacet
facet normal -3.0763270718704253e-15 1.0 -1.5558435765781517e-15
  outer loop
    vertex 106.59347412688034 -33.36258131436282 11.000000000000034
    vertex 84.59347412688027 -33.36258131436286 25.50000000000002
    vertex 106.5934741268803 -33.36258131436282 25.50000000000009
  endloop
endfacet
facet normal -4.2646389927559504e-30 1.0 -4.2834933912119435e-15
  outer loop
    vertex 84.59347412688025 -118.1625813143628 21.50000000000008
    vertex 106.59347412688028 -118.16258131436284 15.000000000000034
    vertex 84.59347412688027 -118.16258131436284 15.000000000000034
  endloop
endfacet
facet normal -4.2646389927559504e-30 1.0 -4.2834933912119435e-15
  outer loop
    vertex 106.59347412688028 -118.16258131436284 15.000000000000034
    vertex 84.59347412688025 -118.1625813143628 21.50000000000008
    vertex 106.59347412688028 -118.16258131436282 21.50000000000008
  endloop
endfacet
facet normal -0.9656841151817507 -0.25971944418090787 1.0829910389214065e-15
  outer loop
    vertex 101.80668598950967 -65.21165562429272 25.500000000000043
    vertex 104.9132919208243 -76.7625813143628 23.50000000000007
    vertex 104.9132919208243 -76.7625813143628 25.500000000000068
  endloop
endfacet
facet normal -0.9656841151817507 -0.25971944418090787 1.0829910389214065e-15
  outer loop
    vertex 104.9132919208243 -76.7625813143628 23.50000000000007
    vertex 101.80668598950967 -65.21165562429272 25.500000000000043
    vertex 101.80668598950967 -65.21165562429272 23.500000000000046
  endloop
endfacet
facet normal 1.3672564763868576e-15 -1.0 4.283493391212029e-16
  outer loop
    vertex 106.59347412688034 -35.362581314362764 15.000000000000034
    vertex 84.59347412688025 -35.36258131436279 21.50000000000007
    vertex 84.59347412688028 -35.36258131436285 15.000000000000028
  endloop
endfacet
facet normal 1.3672564763868576e-15 -1.0 4.283493391212029e-16
  outer loop
    vertex 84.59347412688025 -35.36258131436279 21.50000000000007
    vertex 106.59347412688034 -35.362581314362764 15.000000000000034
    vertex 106.5934741268803 -35.36258131436279 21.50000000000007
  endloop
endfacet
facet normal 0.9656841151817498 -0.25971944418091036 -6.499524031504273e-16
  outer loop
    vertex 101.80668598950967 -65.21165562429272 23.500000000000046
    vertex 98.70008005819496 -76.76258131436285 25.500000000000068
    vertex 98.70008005819496 -76.76258131436285 23.500000000000064
  endloop
endfacet
facet normal 0.9656841151817498 -0.25971944418091036 -6.499524031504273e-16
  outer loop
    vertex 98.70008005819496 -76.76258131436285 25.500000000000068
    vertex 101.80668598950967 -65.21165562429272 23.500000000000046
    vertex 101.80668598950967 -65.21165562429272 25.500000000000043
  endloop
endfacet
facet normal -1.9227044199190303e-16 7.049916206369677e-16 1.0
  outer loop
    vertex 106.59347412688034 -37.36258131436278 15.000000000000034
    vertex 84.59347412688028 -35.36258131436285 15.000000000000028
    vertex 84.59347412688028 -37.36258131436278 15.000000000000028
  endloop
endfacet
facet normal -1.9227044199190303e-16 7.049916206369677e-16 1.0
  outer loop
    vertex 84.59347412688028 -35.36258131436285 15.000000000000028
    vertex 106.59347412688034 -37.36258131436278 15.000000000000034
    vertex 106.59347412688034 -35.362581314362764 15.000000000000034
  endloop
endfacet
facet normal -0.9656841151817497 -0.2597194441809112 1.0829910389214083e-15
  outer loop
    vertex 95.59347412688022 -42.10980424415251 25.500000000000053
    vertex 98.70008005819496 -53.66072993422268 23.50000000000008
    vertex 98.70008005819496 -53.66072993422268 25.500000000000078
  endloop
endfacet
facet normal -0.9656841151817497 -0.2597194441809112 1.0829910389214083e-15
  outer loop
    vertex 98.70008005819496 -53.66072993422268 23.50000000000008
    vertex 95.59347412688022 -42.10980424415251 25.500000000000053
    vertex 95.59347412688022 -42.10980424415251 23.500000000000053
  endloop
endfacet
facet normal -0.9656841151817345 0.25971944418096793 6.499524031503656e-16
  outer loop
    vertex 98.70008005819496 -99.86443269450294 25.50000000000009
    vertex 95.5934741268799 -111.41535838457162 23.500000000000075
    vertex 95.5934741268799 -111.41535838457162 25.500000000000078
  endloop
endfacet
facet normal -0.9656841151817345 0.25971944418096793 6.499524031503656e-16
  outer loop
    vertex 95.5934741268799 -111.41535838457162 23.500000000000075
    vertex 98.70008005819496 -99.86443269450294 25.50000000000009
    vertex 98.70008005819496 -99.86443269450294 23.500000000000085
  endloop
endfacet
facet normal 0.9656841151817498 0.2597194441809109 -1.0829910389214083e-15
  outer loop
    vertex 86.2736563329362 -76.7625813143628 23.50000000000007
    vertex 89.38026226425089 -88.31350700443288 25.50000000000009
    vertex 89.38026226425089 -88.31350700443288 23.500000000000085
  endloop
endfacet
facet normal 0.9656841151817498 0.2597194441809109 -1.0829910389214083e-15
  outer loop
    vertex 89.38026226425089 -88.31350700443288 25.50000000000009
    vertex 86.2736563329362 -76.7625813143628 23.50000000000007
    vertex 86.2736563329362 -76.7625813143628 25.500000000000068
  endloop
endfacet
facet normal 0.9656841151817498 -0.259719444180911 -6.499524031504268e-16
  outer loop
    vertex 95.59347412688004 -88.3135070044338 23.500000000000053
    vertex 92.48686819556559 -99.86443269450294 25.500000000000068
    vertex 92.48686819556559 -99.86443269450294 23.50000000000007
  endloop
endfacet
facet normal 0.9656841151817498 -0.259719444180911 -6.499524031504268e-16
  outer loop
    vertex 92.48686819556559 -99.86443269450294 25.500000000000068
    vertex 95.59347412688004 -88.3135070044338 23.500000000000053
    vertex 95.59347412688004 -88.3135070044338 25.500000000000043
  endloop
endfacet
facet normal 0.9656841151817496 0.25971944418091125 -1.0829910389214085e-15
  outer loop
    vertex 92.48686819556558 -53.66072993422268 23.50000000000007
    vertex 95.59347412688012 -65.21165562429222 25.500000000000053
    vertex 95.59347412688012 -65.21165562429222 23.500000000000057
  endloop
endfacet
facet normal 0.9656841151817496 0.25971944418091125 -1.0829910389214085e-15
  outer loop
    vertex 95.59347412688012 -65.21165562429222 25.500000000000053
    vertex 92.48686819556558 -53.66072993422268 23.50000000000007
    vertex 92.48686819556558 -53.66072993422268 25.500000000000068
  endloop
endfacet
facet normal -3.019605284208606e-16 0.894427190999915 -0.4472135954999602
  outer loop
    vertex 84.59347412688027 -116.16258131436285 15.000000000000034
    vertex 106.59347412688028 -118.16258131436284 11.00000000000005
    vertex 84.59347412688027 -118.16258131436287 11.000000000000034
  endloop
endfacet
facet normal -3.019605284208606e-16 0.894427190999915 -0.4472135954999602
  outer loop
    vertex 106.59347412688028 -118.16258131436284 11.00000000000005
    vertex 84.59347412688027 -116.16258131436285 15.000000000000034
    vertex 106.59347412688028 -116.16258131436285 15.000000000000034
  endloop
endfacet
facet normal 0.9656841151817511 -0.2597194441809059 -6.499524031504322e-16
  outer loop
    vertex 95.59347412688022 -42.10980424415251 23.500000000000053
    vertex 92.48686819556558 -53.66072993422268 25.500000000000068
    vertex 92.48686819556558 -53.66072993422268 23.50000000000007
  endloop
endfacet
facet normal 0.9656841151817511 -0.2597194441809059 -6.499524031504322e-16
  outer loop
    vertex 92.48686819556558 -53.66072993422268 25.500000000000068
    vertex 95.59347412688022 -42.10980424415251 23.500000000000053
    vertex 95.59347412688022 -42.10980424415251 25.500000000000053
  endloop
endfacet
facet normal -0.96568411518175 0.2597194441809096 6.499524031504282e-16
  outer loop
    vertex 104.9132919208243 -76.7625813143628 25.500000000000068
    vertex 101.80668598950963 -88.31350700443289 23.50000000000007
    vertex 101.80668598950963 -88.31350700443289 25.500000000000068
  endloop
endfacet
facet normal -0.96568411518175 0.2597194441809096 6.499524031504282e-16
  outer loop
    vertex 101.80668598950963 -88.31350700443289 23.50000000000007
    vertex 104.9132919208243 -76.7625813143628 25.500000000000068
    vertex 104.9132919208243 -76.7625813143628 23.50000000000007
  endloop
endfacet
facet normal 0.96568411518175 0.25971944418090986 -1.082991038921408e-15
  outer loop
    vertex 92.48686819556559 -99.86443269450294 23.50000000000007
    vertex 95.5934741268799 -111.41535838457162 25.500000000000078
    vertex 95.5934741268799 -111.41535838457162 23.500000000000075
  endloop
endfacet
facet normal 0.96568411518175 0.25971944418090986 -1.082991038921408e-15
  outer loop
    vertex 95.5934741268799 -111.41535838457162 25.500000000000078
    vertex 92.48686819556559 -99.86443269450294 23.50000000000007
    vertex 92.48686819556559 -99.86443269450294 25.500000000000068
  endloop
endfacet
facet normal -0.9656841151817397 -0.2597194441809479 1.0829910389214302e-15
  outer loop
    vertex 95.59347412688004 -88.3135070044338 25.500000000000043
    vertex 98.70008005819496 -99.86443269450294 23.500000000000085
    vertex 98.70008005819496 -99.86443269450294 25.50000000000009
  endloop
endfacet
facet normal -0.9656841151817397 -0.2597194441809479 1.0829910389214302e-15
  outer loop
    vertex 98.70008005819496 -99.86443269450294 23.500000000000085
    vertex 95.59347412688004 -88.3135070044338 25.500000000000043
    vertex 95.59347412688004 -88.3135070044338 23.500000000000053
  endloop
endfacet
facet normal 0.96568411518175 -0.2597194441809096 -6.499524031504282e-16
  outer loop
    vertex 89.38026226425089 -65.21165562429272 23.50000000000007
    vertex 86.2736563329362 -76.7625813143628 25.500000000000068
    vertex 86.2736563329362 -76.7625813143628 23.50000000000007
  endloop
endfacet
facet normal 0.96568411518175 -0.2597194441809096 -6.499524031504282e-16
  outer loop
    vertex 86.2736563329362 -76.7625813143628 25.500000000000068
    vertex 89.38026226425089 -65.21165562429272 23.50000000000007
    vertex 89.38026226425089 -65.21165562429272 25.500000000000068
  endloop
endfacet
facet normal 7.259727170811558e-16 0.7071067811865401 -0.707106781186555
  outer loop
    vertex 106.59347412688025 -116.16258131436278 23.50000000000008
    vertex 84.59347412688025 -118.1625813143628 21.50000000000008
    vertex 84.59347412688022 -116.16258131436275 23.50000000000008
  endloop
endfacet
facet normal 7.259727170811558e-16 0.7071067811865401 -0.707106781186555
  outer loop
    vertex 84.59347412688025 -118.1625813143628 21.50000000000008
    vertex 106.59347412688025 -116.16258131436278 23.50000000000008
    vertex 106.59347412688028 -118.16258131436282 21.50000000000008
  endloop
endfacet
facet normal -4.647158923261607e-32 -0.7071067811865451 -0.70710678118655
  outer loop
    vertex 106.5934741268803 -35.36258131436279 21.50000000000007
    vertex 84.59347412688025 -37.36258131436281 23.50000000000007
    vertex 84.59347412688025 -35.36258131436279 21.50000000000007
  endloop
endfacet
facet normal -4.647158923261607e-32 -0.7071067811865451 -0.70710678118655
  outer loop
    vertex 84.59347412688025 -37.36258131436281 23.50000000000007
    vertex 106.5934741268803 -35.36258131436279 21.50000000000007
    vertex 106.5934741268803 -37.36258131436281 23.50000000000007
  endloop
endfacet
endsolid Tapa_pilas_8_4
